<svg xmlns="http://www.w3.org/2000/svg" width="404" height="656" font-family="sans-serif" font-size="13">
<rect width="404" height="656" fill="white"/>
<line x1="34.0" y1="622.0" x2="34.0" y2="34.0" stroke="#eee"/>
<line x1="76.0" y1="622.0" x2="76.0" y2="34.0" stroke="#eee"/>
<line x1="118.0" y1="622.0" x2="118.0" y2="34.0" stroke="#eee"/>
<line x1="160.0" y1="622.0" x2="160.0" y2="34.0" stroke="#eee"/>
<line x1="202.0" y1="622.0" x2="202.0" y2="34.0" stroke="#eee"/>
<line x1="244.0" y1="622.0" x2="244.0" y2="34.0" stroke="#eee"/>
<line x1="286.0" y1="622.0" x2="286.0" y2="34.0" stroke="#eee"/>
<line x1="328.0" y1="622.0" x2="328.0" y2="34.0" stroke="#eee"/>
<line x1="370.0" y1="622.0" x2="370.0" y2="34.0" stroke="#eee"/>
<line x1="34.0" y1="622.0" x2="370.0" y2="622.0" stroke="#eee"/>
<line x1="34.0" y1="580.0" x2="370.0" y2="580.0" stroke="#eee"/>
<line x1="34.0" y1="538.0" x2="370.0" y2="538.0" stroke="#eee"/>
<line x1="34.0" y1="496.0" x2="370.0" y2="496.0" stroke="#eee"/>
<line x1="34.0" y1="454.0" x2="370.0" y2="454.0" stroke="#eee"/>
<line x1="34.0" y1="412.0" x2="370.0" y2="412.0" stroke="#eee"/>
<line x1="34.0" y1="370.0" x2="370.0" y2="370.0" stroke="#eee"/>
<line x1="34.0" y1="328.0" x2="370.0" y2="328.0" stroke="#eee"/>
<line x1="34.0" y1="286.0" x2="370.0" y2="286.0" stroke="#eee"/>
<line x1="34.0" y1="244.0" x2="370.0" y2="244.0" stroke="#eee"/>
<line x1="34.0" y1="202.0" x2="370.0" y2="202.0" stroke="#eee"/>
<line x1="34.0" y1="160.0" x2="370.0" y2="160.0" stroke="#eee"/>
<line x1="34.0" y1="118.0" x2="370.0" y2="118.0" stroke="#eee"/>
<line x1="34.0" y1="76.0" x2="370.0" y2="76.0" stroke="#eee"/>
<line x1="34.0" y1="34.0" x2="370.0" y2="34.0" stroke="#eee"/>
<polygon points="34.0,34.0 370.0,328.0 202.0,622.0" fill="#9ec9e0" stroke="none"/>
<polygon points="34.0,622.0 370.0,622.0 370.0,34.0 34.0,34.0" fill="none" stroke="#222" stroke-width="2"/>
<line x1="34.0" y1="34.0" x2="370.0" y2="328.0" stroke="#1763a6" stroke-width="1.5"/>
<line x1="370.0" y1="328.0" x2="202.0" y2="622.0" stroke="#1763a6" stroke-width="1.5"/>
<line x1="202.0" y1="622.0" x2="34.0" y2="34.0" stroke="#1763a6" stroke-width="1.5"/>
<circle cx="34.0" cy="34.0" r="2.5" fill="#222"/>
<text x="22.0" y="28.0">A</text>
<circle cx="370.0" cy="34.0" r="2.5" fill="#222"/>
<text x="376.0" y="28.0">B</text>
<circle cx="370.0" cy="622.0" r="2.5" fill="#222"/>
<text x="376.0" y="616.0">C</text>
<circle cx="34.0" cy="622.0" r="2.5" fill="#222"/>
<text x="22.0" y="616.0">D</text>
<circle cx="370.0" cy="328.0" r="2.5" fill="#222"/>
<text x="376.0" y="322.0">M</text>
<circle cx="202.0" cy="622.0" r="2.5" fill="#222"/>
<text x="208.0" y="616.0">N</text>
<text x="202.0" y="640.0" fill="#555">W=8</text>
<text x="14.0" y="328.0" fill="#555">H=14</text>
</svg>